<svg width="18" height="18" viewBox="0 0 18 18" fill="none" xmlns="http://www.w3.org/2000/svg">
<g clip-path="url(#clip0_177706_3010)">
<path d="M17.2786 6.66306C15.4573 3.85298 12.3478 2.1439 8.99922 2.11249C5.65068 2.1439 2.54118 3.85298 0.719861 6.66306C-0.239954 8.07165 -0.239954 9.92413 0.719861 11.3328C2.54015 14.1446 5.64983 15.8554 8.99926 15.8879C12.3478 15.8564 15.4573 14.1474 17.2787 11.3373C18.2405 9.92763 18.2405 8.07267 17.2786 6.66306ZM15.415 10.0556C14.0244 12.2612 11.6065 13.6068 8.99922 13.6261C6.39199 13.6068 3.97405 12.2612 2.58348 10.0556C2.14997 9.41875 2.14997 8.58156 2.58348 7.94471C3.97401 5.73915 6.39196 4.39353 8.99922 4.3742C11.6064 4.3935 14.0244 5.73915 15.415 7.94471C15.8485 8.58156 15.8485 9.41875 15.415 10.0556Z" fill="#838894"/>
<path d="M8.99998 12.0157C10.6655 12.0157 12.0156 10.6655 12.0156 9.00004C12.0156 7.33457 10.6655 5.98444 8.99998 5.98444C7.33451 5.98444 5.98438 7.33457 5.98438 9.00004C5.98438 10.6655 7.33451 12.0157 8.99998 12.0157Z" fill="#838894"/>
</g>
<defs>
<clipPath id="clip0_177706_3010">
<rect width="18" height="18" fill="white"/>
</clipPath>
</defs>
</svg>
