<svg width="20" height="20" viewBox="0 0 20 20" fill="none" xmlns="http://www.w3.org/2000/svg">
<g clip-path="url(#clip0_177706_3453)">
<path d="M19.7552 18.5781L14.781 13.6039C16.1365 11.9461 16.803 9.83067 16.6425 7.69523C16.4821 5.55979 15.507 3.56771 13.919 2.13103C12.331 0.694355 10.2515 -0.0769933 8.1107 -0.0234668C5.96991 0.0300597 3.93158 0.904366 2.41734 2.41861C0.9031 3.93285 0.0287933 5.97117 -0.0247333 8.11197C-0.0782598 10.2528 0.693089 12.3322 2.12976 13.9203C3.56644 15.5083 5.55852 16.4834 7.69397 16.6438C9.82941 16.8042 11.9448 16.1378 13.6027 14.7823L18.5768 19.7564C18.734 19.9082 18.9445 19.9922 19.163 19.9903C19.3815 19.9884 19.5905 19.9008 19.745 19.7463C19.8995 19.5918 19.9872 19.3828 19.9891 19.1643C19.991 18.9458 19.907 18.7353 19.7552 18.5781ZM8.33266 15.0006C7.01412 15.0006 5.72519 14.6096 4.62886 13.8771C3.53253 13.1445 2.67805 12.1033 2.17347 10.8852C1.66888 9.66698 1.53686 8.32654 1.79409 7.03333C2.05133 5.74012 2.68627 4.55224 3.61862 3.61988C4.55097 2.68753 5.73885 2.0526 7.03206 1.79536C8.32527 1.53813 9.66571 1.67015 10.8839 2.17473C12.1021 2.67932 13.1433 3.5338 13.8758 4.63013C14.6083 5.72646 14.9993 7.01539 14.9993 8.33393C14.9973 10.1014 14.2943 11.796 13.0445 13.0458C11.7947 14.2956 10.1002 14.9986 8.33266 15.0006Z" fill="#999DAA"/>
</g>
<defs>
<clipPath id="clip0_177706_3453">
<rect width="20" height="20" fill="white"/>
</clipPath>
</defs>
</svg>
