<svg width="17" height="16" viewBox="0 0 17 16" fill="none" xmlns="http://www.w3.org/2000/svg">
<path d="M12.9735 5.55326C12.9115 5.48357 12.8378 5.42826 12.7566 5.39051C12.6753 5.35276 12.5882 5.33333 12.5002 5.33333C12.4122 5.33333 12.3251 5.35276 12.2438 5.39051C12.1626 5.42826 12.0889 5.48357 12.0269 5.55326L8.97393 8.95855C8.91196 9.02823 8.83824 9.08355 8.75701 9.12129C8.67578 9.15904 8.58865 9.17848 8.50065 9.17848C8.41265 9.17848 8.32553 9.15904 8.2443 9.12129C8.16307 9.08355 8.08934 9.02823 8.02737 8.95855L4.97438 5.55326C4.91242 5.48357 4.83869 5.42826 4.75746 5.39051C4.67623 5.35276 4.5891 5.33333 4.5011 5.33333C4.41311 5.33333 4.32598 5.35276 4.24475 5.39051C4.16352 5.42826 4.08979 5.48357 4.02782 5.55326C3.90367 5.69256 3.83398 5.88101 3.83398 6.07743C3.83398 6.27386 3.90367 6.4623 4.02782 6.60161L7.08748 10.0143C7.46244 10.432 7.97071 10.6667 8.50065 10.6667C9.03059 10.6667 9.53887 10.432 9.91382 10.0143L12.9735 6.60161C13.0976 6.4623 13.1673 6.27386 13.1673 6.07743C13.1673 5.88101 13.0976 5.69256 12.9735 5.55326V5.55326Z" fill="#F1F2FF"/>
</svg>
