<svg width="16" height="16" viewBox="0 0 16 16" fill="none" xmlns="http://www.w3.org/2000/svg">
<path d="M12.4735 5.55324C12.4115 5.48355 12.3378 5.42824 12.2566 5.39049C12.1753 5.35275 12.0882 5.33331 12.0002 5.33331C11.9122 5.33331 11.8251 5.35275 11.7438 5.39049C11.6626 5.42824 11.5889 5.48355 11.5269 5.55324L8.47393 8.95853C8.41196 9.02822 8.33824 9.08353 8.25701 9.12128C8.17578 9.15903 8.08865 9.17846 8.00065 9.17846C7.91265 9.17846 7.82553 9.15903 7.7443 9.12128C7.66307 9.08353 7.58934 9.02822 7.52737 8.95853L4.47438 5.55324C4.41242 5.48355 4.33869 5.42824 4.25746 5.39049C4.17623 5.35275 4.0891 5.33331 4.0011 5.33331C3.91311 5.33331 3.82598 5.35275 3.74475 5.39049C3.66352 5.42824 3.58979 5.48355 3.52782 5.55324C3.40367 5.69255 3.33398 5.88099 3.33398 6.07742C3.33398 6.27384 3.40367 6.46229 3.52782 6.6016L6.58748 10.0143C6.96244 10.432 7.47071 10.6666 8.00065 10.6666C8.53059 10.6666 9.03887 10.432 9.41382 10.0143L12.4735 6.6016C12.5976 6.46229 12.6673 6.27384 12.6673 6.07742C12.6673 5.88099 12.5976 5.69255 12.4735 5.55324V5.55324Z" fill="#000814"/>
</svg>
