<svg width="16" height="16" viewBox="0 0 16 16" fill="none" xmlns="http://www.w3.org/2000/svg">
<g clip-path="url(#clip0_177706_1443)">
<path d="M15.414 6.04594L10.3573 0.988608C9.7315 0.364601 8.88378 0.0141907 8.00001 0.0141907C7.11623 0.0141907 6.26851 0.364601 5.64267 0.988608L0.586008 6.04594C0.399625 6.23113 0.251855 6.45147 0.151263 6.6942C0.0506715 6.93692 -0.000740267 7.1972 8.05299e-06 7.45994V14.0046C8.05299e-06 14.535 0.210722 15.0437 0.585795 15.4188C0.960867 15.7939 1.46958 16.0046 2.00001 16.0046H14C14.5304 16.0046 15.0391 15.7939 15.4142 15.4188C15.7893 15.0437 16 14.535 16 14.0046V7.45994C16.0008 7.1972 15.9493 6.93692 15.8488 6.6942C15.7482 6.45147 15.6004 6.23113 15.414 6.04594V6.04594ZM10 14.6713H6.00001V12.0486C6.00001 11.5182 6.21072 11.0095 6.58579 10.6344C6.96087 10.2593 7.46958 10.0486 8.00001 10.0486C8.53044 10.0486 9.03915 10.2593 9.41422 10.6344C9.7893 11.0095 10 11.5182 10 12.0486V14.6713ZM14.6667 14.0046C14.6667 14.1814 14.5964 14.351 14.4714 14.476C14.3464 14.601 14.1768 14.6713 14 14.6713H11.3333V12.0486C11.3333 11.1646 10.9822 10.3167 10.357 9.69159C9.73191 9.06646 8.88406 8.71528 8.00001 8.71528C7.11595 8.71528 6.26811 9.06646 5.64299 9.69159C5.01786 10.3167 4.66667 11.1646 4.66667 12.0486V14.6713H2.00001C1.8232 14.6713 1.65363 14.601 1.5286 14.476C1.40358 14.351 1.33334 14.1814 1.33334 14.0046V7.45994C1.33396 7.28326 1.40413 7.11393 1.52867 6.98861L6.58534 1.93327C6.96114 1.55923 7.46978 1.34924 8.00001 1.34924C8.53023 1.34924 9.03888 1.55923 9.41468 1.93327L14.4713 6.99061C14.5954 7.11544 14.6655 7.28395 14.6667 7.45994V14.0046Z" fill="#999DAA"/>
</g>
<defs>
<clipPath id="clip0_177706_1443">
<rect width="16" height="16" fill="white"/>
</clipPath>
</defs>
</svg>
