<svg width="72" height="9" viewBox="0 0 72 9" fill="none" xmlns="http://www.w3.org/2000/svg">
<g clip-path="url(#clip0_11167_20676)">
<path d="M0.0729904 8.19702C0.239822 8.43471 0.467697 8.63198 0.737015 8.77186C1.00633 8.91174 1.30901 8.99003 1.619 9C2.02219 9.04802 2.43054 9.04802 2.83372 9C3.2981 8.94343 3.75461 8.8425 4.19569 8.69888H4.52698H4.85827H5.22636L6.22023 8.36431L6.80919 8.16357H7.14048H7.50857L9.05458 7.69517L9.93802 7.42751L10.8583 7.15985H11.3736H11.8521L12.9196 6.89219L15.3123 5.38662H15.9012H16.4902L17.7785 5.0855H18.073H18.4043L18.9932 4.58364L20.3184 4.31598L21.7172 4.08179H22.4165H23.1159L24.5883 3.84759L26.0607 3.6803H26.7969H27.5699L29.0791 3.51301H30.6251H31.3981H32.208H33.754H35.3368H41.6681C42.7356 3.51301 43.8031 3.51301 44.8337 3.51301H46.3797H47.1527H47.9258H49.435H50.9442H51.6804H52.4165L53.8521 3.6803H54.5515H55.2509H55.9503H56.2816H56.6129L57.938 3.88104H58.6006H59.2264L60.4779 4.58364H61.0669H61.6558L62.7969 4.81784H63.165H63.4595H63.9748L65.9994 5.25279L67.7294 5.68773L69.2018 6.05576H69.8644L70.4166 6.22305L71.3 6.42379C71.8153 6.42379 72.073 6.42379 72.1098 6.42379C72.1466 6.42379 71.8889 6.22305 71.4472 5.98885L70.527 6.25651L69.9748 6.02231L69.3859 5.78811L67.9503 5.25279L66.2202 4.58364C65.5945 4.34944 64.9319 4.18215 64.2325 3.94795L63.7172 3.78067H63.4595H63.165L62.0239 3.4461H61.4718L60.846 3.27881L59.484 2.81041H58.8215H58.1957L56.8337 2.50929H56.5024H56.1712L55.4718 2.34201H54.7724H54.0362L52.6006 2.10781H51.8644H51.0914L49.5822 1.87361L48.0362 1.67286H47.2632H46.4534H45.6804H45.2754H44.8705L41.6313 1.43866H40.0116H38.392H30.2202H28.6006H27.0546H26.2448H25.4718L23.9258 1.60595L22.4165 1.77323H21.6804H20.9442L19.5086 1.97398L18.1098 2.20818H17.4472H17.0791H16.7478L15.4595 2.44238H14.7969H14.1712L11.8153 2.94424L10.711 3.2119H10.1589H9.64354L8.68649 3.4461L7.76624 3.71375L6.1098 4.18215H5.7417H5.41041L4.74783 4.3829L3.71716 4.68402H3.31226H3.01778H2.64967C2.1868 4.84375 1.74284 5.04551 1.32452 5.28624C0.992989 5.51712 0.684998 5.77467 0.404282 6.05576C0.0792007 6.31932 -0.1325 6.67912 -0.193153 7.0712C-0.253815 7.46328 -0.159508 7.8622 0.0729904 8.19702Z" fill="#074B5D"/>
</g>
<defs>
<clipPath id="clip0_11167_20676">
<rect width="72" height="9" fill="white" transform="matrix(-1 0 0 1 72 0)"/>
</clipPath>
</defs>
</svg>
