<svg width="22" height="22" viewBox="0 0 22 22" fill="none" xmlns="http://www.w3.org/2000/svg">
<path fill-rule="evenodd" clip-rule="evenodd" d="M11.0004 3.29999C11.456 3.29999 11.8254 3.66935 11.8254 4.12499L11.8254 15.8267L16.1807 11.2532C16.4965 10.9247 17.0188 10.9145 17.3472 11.2303C17.6756 11.5461 17.6859 12.0684 17.3701 12.3968L11.5951 18.4468C11.4395 18.6086 11.2248 18.7 11.0004 18.7C10.776 18.7 10.5612 18.6086 10.4057 18.4468L4.6307 12.3968C4.3149 12.0684 4.32514 11.5461 4.65358 11.2303C4.98201 10.9145 5.50427 10.9247 5.82008 11.2532L10.1754 15.8267L10.1754 4.12499C10.1754 3.66935 10.5448 3.29999 11.0004 3.29999Z" fill="#838894"/>
</svg>
