<svg width="15" height="14" viewBox="0 0 15 14" fill="none" xmlns="http://www.w3.org/2000/svg">
<path d="M11.4131 4.85911C11.3588 4.79813 11.2943 4.74973 11.2233 4.71671C11.1522 4.68368 11.0759 4.66667 10.999 4.66667C10.922 4.66667 10.8457 4.68368 10.7746 4.71671C10.7036 4.74973 10.6391 4.79813 10.5848 4.85911L7.91347 7.83874C7.85925 7.89971 7.79474 7.94811 7.72366 7.98114C7.65258 8.01417 7.57635 8.03118 7.49935 8.03118C7.42235 8.03118 7.34611 8.01417 7.27504 7.98114C7.20396 7.94811 7.13945 7.89971 7.08523 7.83874L4.41386 4.85911C4.35964 4.79813 4.29513 4.74973 4.22406 4.71671C4.15298 4.68368 4.07674 4.66667 3.99975 4.66667C3.92275 4.66667 3.84651 4.68368 3.77543 4.71671C3.70436 4.74973 3.63985 4.79813 3.58563 4.85911C3.47699 4.981 3.41602 5.14589 3.41602 5.31776C3.41602 5.48964 3.47699 5.65453 3.58563 5.77642L6.26282 8.76255C6.59091 9.12804 7.03565 9.33334 7.49935 9.33334C7.96305 9.33334 8.40779 9.12804 8.73587 8.76255L11.4131 5.77642C11.5217 5.65453 11.5827 5.48964 11.5827 5.31776C11.5827 5.14589 11.5217 4.981 11.4131 4.85911Z" fill="#AFB2BF"/>
</svg>
